<?xml version="1.0" standalone="no"?>
<!DOCTYPE svg PUBLIC "-//W3C//DTD SVG 20010904//EN"
 "http://www.w3.org/TR/2001/REC-SVG-20010904/DTD/svg10.dtd">
<svg version="1.0" xmlns="http://www.w3.org/2000/svg"
 width="700.000000pt" height="700.000000pt" viewBox="0 0 700.000000 700.000000"
 preserveAspectRatio="xMidYMid meet">
<metadata>
Created by potrace 1.11, written by Peter Selinger 2001-2013
</metadata>
<g transform="translate(0.000000,700.000000) scale(0.100000,-0.100000)"
fill="#000000" stroke="none">
<path d="M3425 6831 c-139 -47 -239 -133 -300 -258 -37 -78 -47 -130 -49 -253
l-2 -115 -274 -2 c-257 -1 -279 -3 -335 -23 -78 -29 -163 -113 -190 -188 l-19
-52 -386 0 c-398 0 -463 -5 -546 -41 -117 -52 -226 -189 -249 -314 -7 -37 -7
-1602 -1 -4005 2 -768 6 -1026 15 -1060 32 -114 108 -213 211 -274 51 -30 72
-38 140 -54 50 -11 4200 -1 4264 10 156 29 303 171 346 333 9 37 9 485 0 4566
-1 509 -3 529 -64 633 -32 55 -122 137 -181 166 -93 45 -123 48 -527 48 -211
0 -392 0 -403 1 -15 1 -25 14 -37 49 -32 89 -126 172 -224 198 -24 6 -151 10
-307 10 l-267 -1 -1 25 c-5 232 -12 276 -60 372 -50 98 -175 196 -298 232 -71
21 -192 19 -256 -3z"/>
<path d="M1409 6216 c-2 -2 -22 -6 -44 -9 -120 -17 -265 -96 -371 -202 -96
-96 -163 -219 -193 -353 -8 -38 -7 -46 10 -63 14 -14 27 -18 42 -13 29 9 26 4
44 71 49 189 177 344 353 426 42 20 148 47 198 52 82 8 80 95 -2 95 -18 0 -35
-2 -37 -4z"/>
<path d="M797 5442 c-20 -22 -22 -72 -4 -94 34 -43 78 -23 82 38 4 64 -42 96
-78 56z"/>
<path d="M6257 2780 c-9 -13 -12 -124 -11 -420 1 -380 2 -404 19 -416 24 -18
40 -18 59 2 14 13 16 65 16 418 0 371 -1 404 -17 418 -23 20 -51 19 -66 -2z"/>
<path d="M6262 1768 c-17 -21 -17 -83 0 -109 13 -21 19 -23 44 -14 26 9 29 16
32 58 2 27 -2 55 -9 63 -14 17 -53 18 -67 2z"/>
</g>
</svg>
